<?xml version="1.0" encoding="UTF-8"?>
<svg id="_圖層_1" data-name="圖層 1" xmlns="http://www.w3.org/2000/svg" viewBox="0 0 300 300">
  <defs>
    <style>
      .cls-1 {
        fill: #383636;
      }

      .cls-2 {
        fill: #d61718;
      }
    </style>
  </defs>
  <path class="cls-1" d="M162.07,234.47h-24.14c-4.43,0-8.04,3.61-8.04,8.05v8.04c0,4.43,3.61,8.04,8.04,8.04h24.14c4.43,0,8.04-3.61,8.04-8.04v-8.04c0-4.44-3.61-8.05-8.04-8.05h0ZM162.07,250.56h-24.14v-8.04h24.14v8.04s0,0,0,0h0ZM162.07,250.56"/>
  <g>
    <g>
      <path class="cls-1" d="M113.8,93.69c0-2.22-1.8-4.02-4.02-4.02s-4.02,1.8-4.02,4.02,1.8,4.02,4.02,4.02,4.02-1.8,4.02-4.02Z"/>
      <path class="cls-1" d="M258.6,154.02c0-4.44-3.61-8.05-8.04-8.05h-40.22v-24.13h18.99l3.59-10.76c.58-.22,1.15-.46,1.72-.71l10.15,5.07,15.48-15.48-5.07-10.15c.25-.57.49-1.14.71-1.72l10.76-3.59v-21.89l-10.76-3.59c-.22-.58-.46-1.15-.71-1.71l5.07-10.15-15.48-15.48-10.15,5.07c-.57-.25-1.14-.49-1.72-.71l-3.59-10.76h-21.89l-3.59,10.76c-.58.22-1.15.46-1.71.71l-10.15-5.07-15.48,15.48,5.07,10.15c-.25.57-.49,1.14-.71,1.71l-10.76,3.59v10.94h-60.34c-11.09,0-20.11,9.02-20.11,20.11v20.11h8.04v-20.11c0-6.65,5.41-12.07,12.07-12.07h20.11v4.02c0,6.65,5.41,12.07,12.07,12.07h16.09c6.65,0,12.07-5.41,12.07-12.07v-4.02h20.11c6.65,0,12.07,5.41,12.07,12.07v52.29h-16.09v-16.09h-72.4v16.09h-16.09v-24.13h-16.09v-12.07H25.31v32.18h56.31v-12.07h8.04v24.14h24.13v8.04h-32.18v-12.07H25.31v32.18h56.31v-12.07h32.18v8.04h-24.13v24.13h-8.04v-12.07H25.31v32.18h56.31v-12.07h16.09v-24.13h16.09v16.09h72.4v-16.09h16.09v32.18h-112.62v36.2c0,11.09,9.02,20.11,20.11,20.11h80.45c11.09,0,20.11-9.02,20.11-20.11v-68.38h40.22c4.44,0,8.04-3.61,8.04-8.04h16.09v-24.13h-16.09ZM162.07,85.64c0,2.22-1.81,4.02-4.02,4.02h-16.09c-2.22,0-4.02-1.81-4.02-4.02v-4.02h24.14v4.02ZM73.58,133.91h-40.22v-16.09h40.22v16.09ZM73.58,174.13h-40.22v-16.09h40.22v16.09ZM73.58,214.36h-40.22v-16.09h40.22v16.09ZM202.29,254.58c0,6.65-5.41,12.07-12.07,12.07h-80.45c-6.65,0-12.07-5.41-12.07-12.07v-28.15h104.58v28.15ZM209.08,86.7c-1.26-3.38-3.39-6.33-6.14-8.58-.43-1.47-.66-3-.66-4.55,0-8.87,7.22-16.09,16.09-16.09s16.09,7.22,16.09,16.09-7.22,16.09-16.09,16.09c-3.38,0-6.57-1.02-9.29-2.96ZM194.25,73.58c0,.13,0,.27.01.41-1.3-.27-2.65-.41-4.03-.41h-12.07v-5.15l9.03-3.01.63-1.92c.5-1.5,1.11-2.99,1.83-4.41l.91-1.8-4.26-8.52,7.28-7.28,8.52,4.26,1.8-.91c1.42-.72,2.9-1.33,4.41-1.83l1.92-.63,3.01-9.03h10.29l3.01,9.03,1.92.63c1.51.5,2.99,1.11,4.41,1.83l1.8.91,8.52-4.26,7.28,7.28-4.26,8.52.91,1.8c.72,1.42,1.33,2.9,1.83,4.41l.63,1.92,9.03,3.01v10.29l-9.03,3.01-.63,1.92c-.5,1.5-1.11,2.99-1.83,4.41l-.91,1.8,4.26,8.52-7.28,7.28-8.52-4.26-1.8.91c-1.42.72-2.9,1.33-4.41,1.83l-1.92.63-3.01,9.03h-13.19v-17.47c2.57.91,5.29,1.38,8.04,1.38,13.31,0,24.13-10.83,24.13-24.13s-10.82-24.14-24.13-24.14-24.13,10.83-24.13,24.14ZM178.16,194.25h-56.31v-56.31h56.31v8.04h-12.8l-29.09,10.91c-3.82,1.43-6.38,5.13-6.38,9.2s2.56,7.77,6.38,9.2l29.09,10.91h12.8v8.04ZM162.07,155.8v20.57l-22.98-8.61c-.69-.26-1.16-.93-1.16-1.67s.47-1.41,1.16-1.67l22.98-8.62ZM250.56,178.16h-80.45v-24.13h80.45v24.13ZM266.65,170.11h-8.04v-8.04h8.04v8.04Z"/>
    </g>
    <path class="cls-2" d="M202.29,145.98h-16.09v-16.09h-72.4v16.09h-16.09v-24.13h-16.09v-12.07H25.31v32.18h56.31v-12.07h8.04v24.14h24.13v8.04h-32.18v-12.07H25.31v32.18h56.31v-12.07h32.18v8.04h-24.13v24.13h-8.04v-12.07H25.31v32.18h56.31v-12.07h16.09v-24.13h16.09v16.09h72.4v-16.09h64.35c4.44,0,8.04-3.61,8.04-8.04h16.09v-24.13h-16.09c0-4.44-3.61-8.05-8.04-8.05h-48.27ZM73.58,133.91h-40.22v-16.09h40.22v16.09ZM73.58,174.13h-40.22v-16.09h40.22v16.09ZM73.58,214.36h-40.22v-16.09h40.22v16.09ZM178.16,194.25h-56.31v-56.31h56.31v8.04h-12.8l-29.09,10.91c-3.82,1.43-6.38,5.13-6.38,9.2s2.56,7.77,6.38,9.2l29.09,10.91h12.8v8.04ZM162.07,155.8v20.57l-22.98-8.61c-.69-.26-1.16-.93-1.16-1.67s.47-1.41,1.16-1.67l22.98-8.62ZM250.56,178.16h-80.45v-24.13h80.45v24.13ZM266.65,170.11h-8.04v-8.04h8.04v8.04Z"/>
  </g>
</svg>