<?xml version="1.0" encoding="UTF-8"?>
<svg id="_圖層_1" data-name="圖層 1" xmlns="http://www.w3.org/2000/svg" viewBox="0 0 300 300">
  <defs>
    <style>
      .cls-1 {
        fill: #383636;
      }

      .cls-2 {
        fill: #d61718;
      }
    </style>
  </defs>
  <path class="cls-1" d="M273.76,76.41c-.78-.97-1.96-1.54-3.21-1.54h-3.67V28.95c0-2.3-1.87-4.17-4.17-4.17h-83.48c-2.3,0-4.17,1.87-4.17,4.17v45.91h-3.67c-1.25,0-2.43.58-3.21,1.54-.8.98-1.11,2.27-.84,3.51l3.63,16.7c.41,1.93,2.12,3.3,4.09,3.3h91.83c1.97,0,3.68-1.37,4.09-3.3l3.63-16.7c.27-1.24-.04-2.53-.84-3.51h0ZM183.39,33.13h75.13v41.74h-29.22c-2.3,0-4.17,1.87-4.17,4.17h-8.35c0-2.3-1.87-4.17-4.17-4.17h-29.22v-41.74ZM263.53,91.56h-85.15l-1.8-8.35h31.85c0,2.3,1.87,4.17,4.17,4.17h16.7c2.3,0,4.17-1.87,4.17-4.17h31.85l-1.8,8.35ZM263.53,91.56"/>
  <path class="cls-1" d="M104.09,191.74H37.3c-6.91.02-12.5,5.61-12.52,12.52v41.74c.02,6.91,5.61,12.5,12.52,12.52h15.82l-2.8,11.52c-.33,1.25-.05,2.58.75,3.59.8,1.01,2.01,1.6,3.3,1.59h32.64c1.29,0,2.5-.58,3.3-1.59.8-1.01,1.08-2.34.75-3.59l-2.8-11.52h15.82c6.91-.02,12.5-5.61,12.52-12.52v-41.74c-.02-6.91-5.61-12.5-12.52-12.52h0ZM59.68,266.87l2.05-8.35h17.95l2.05,8.35h-22.04ZM108.26,246c0,2.3-1.87,4.17-4.17,4.17H37.3c-2.3,0-4.17-1.87-4.17-4.17v-4.17h75.13v4.17ZM108.26,233.48H33.13v-29.22c0-2.3,1.87-4.17,4.17-4.17h66.78c2.3,0,4.17,1.87,4.17,4.17v29.22ZM108.26,233.48"/>
  <path class="cls-1" d="M262.7,183.39h-33.39c-6.91.02-12.5,5.61-12.52,12.52v66.78c.02,6.91,5.61,12.5,12.52,12.52h33.39c6.91-.02,12.5-5.61,12.52-12.52v-66.78c-.02-6.91-5.61-12.5-12.52-12.52h0ZM254.35,191.74c0,2.3-1.87,4.17-4.17,4.17h-8.35c-2.3,0-4.17-1.87-4.17-4.17h16.7ZM266.87,262.7c0,2.3-1.87,4.17-4.17,4.17h-33.39c-2.3,0-4.17-1.87-4.17-4.17v-66.78c0-2.3,1.87-4.17,4.17-4.17.02,6.91,5.61,12.5,12.52,12.52h8.35c6.91-.02,12.5-5.61,12.52-12.52,2.3,0,4.17,1.87,4.17,4.17v66.78ZM266.87,262.7"/>
  <path class="cls-1" d="M87.39,24.78h-50.09c-6.91.02-12.5,5.61-12.52,12.52v66.78c.02,6.91,5.61,12.5,12.52,12.52h50.09c6.91-.02,12.5-5.61,12.52-12.52V37.3c-.02-6.91-5.61-12.5-12.52-12.52h0ZM91.56,104.09c0,2.3-1.87,4.17-4.17,4.17h-50.09c-2.3,0-4.17-1.87-4.17-4.17V37.3c0-2.3,1.87-4.17,4.17-4.17h50.09c2.3,0,4.17,1.87,4.17,4.17v66.78ZM91.56,104.09"/>
  <rect class="cls-1" x="58.17" y="91.56" width="8.35" height="8.35"/>
  <path class="cls-2" d="M192.24,137.9l-10.02-1.25,6.22-7.97c1.29-1.67,1.13-4.04-.38-5.51l-11.23-11.23c-1.48-1.5-3.84-1.66-5.51-.38l-7.97,6.22-1.25-10.02c-.28-2.09-2.06-3.67-4.17-3.67h-15.86c-2.11,0-3.9,1.58-4.17,3.67l-1.25,10.02-7.97-6.22c-1.67-1.28-4.03-1.12-5.51.38l-11.23,11.23c-1.51,1.47-1.67,3.84-.38,5.51l6.22,7.97-10.02,1.25c-2.09.28-3.67,2.06-3.67,4.17v15.86c0,2.11,1.58,3.9,3.67,4.17l10.02,1.25-6.22,7.97c-1.29,1.67-1.13,4.04.38,5.51l11.23,11.23c1.48,1.5,3.84,1.66,5.51.38l7.97-6.22,1.25,10.02c.28,2.09,2.06,3.67,4.17,3.67h15.86c2.11,0,3.9-1.58,4.17-3.67l1.25-10.02,7.97,6.22c1.67,1.28,4.03,1.12,5.51-.38l11.23-11.23c1.51-1.47,1.67-3.84.38-5.51l-6.22-7.97,10.02-1.25c2.09-.28,3.67-2.06,3.67-4.17v-15.86c0-2.11-1.58-3.9-3.67-4.17h0ZM187.57,154.26l-9.89,1.25c-1.59.19-2.92,1.28-3.42,2.8-.37,1-.79,2-1.25,2.96-.72,1.43-.54,3.14.46,4.38l6.14,7.89-6.05,6.05-7.89-6.14c-1.25-.99-2.96-1.17-4.38-.46-.98.47-1.98.89-3.01,1.25-1.5.52-2.57,1.85-2.75,3.42l-1.25,9.89h-8.52l-1.25-9.89c-.18-1.58-1.25-2.91-2.75-3.42-1.02-.37-2.03-.79-3.01-1.25-1.43-.72-3.14-.54-4.38.46l-7.89,6.14-6.05-6.05,6.14-7.89c.99-1.25,1.17-2.96.46-4.38-.46-.96-.88-1.96-1.25-2.96-.5-1.52-1.83-2.61-3.42-2.8l-9.89-1.25v-8.52l9.89-1.25c1.59-.19,2.92-1.28,3.42-2.8.37-1,.79-2,1.25-2.96.72-1.43.54-3.14-.46-4.38l-6.14-7.89,6.05-6.05,7.89,6.14c1.25.99,2.96,1.17,4.38.46.96-.46,1.96-.88,2.96-1.25,1.52-.5,2.61-1.83,2.8-3.42l1.25-9.89h8.52l1.25,9.89c.19,1.59,1.28,2.92,2.8,3.42,1,.37,2,.79,2.96,1.25,1.43.72,3.14.54,4.38-.46l7.89-6.14,6.05,6.05-6.14,7.89c-.99,1.25-1.17,2.96-.46,4.38.46.96.88,1.96,1.25,2.96.5,1.52,1.83,2.61,3.42,2.8l9.89,1.25v8.52ZM187.57,154.26"/>
  <path class="cls-2" d="M170.87,150c0-8.44-5.08-16.05-12.88-19.28-7.8-3.23-16.77-1.45-22.74,4.52-5.97,5.97-7.75,14.95-4.52,22.74,3.23,7.8,10.84,12.88,19.28,12.88,11.52-.01,20.86-9.35,20.87-20.87h0ZM150,162.52c-5.07,0-9.63-3.05-11.57-7.73-1.94-4.68-.87-10.06,2.71-13.64,3.58-3.58,8.97-4.65,13.64-2.71,4.68,1.94,7.73,6.5,7.73,11.57,0,6.92-5.61,12.52-12.52,12.52h0ZM150,162.52"/>
  <path class="cls-1" d="M204.26,141.65v8.35h16.7c2.3,0,4.17-1.87,4.17-4.17v-37.57h-8.35v33.39h-12.52ZM204.26,141.65"/>
  <path class="cls-1" d="M62.35,150v33.39h8.35v-29.22h25.04v-8.35h-29.22c-2.3,0-4.17,1.87-4.17,4.17h0ZM62.35,150"/>
  <path class="cls-1" d="M145.83,95.74h8.35v-25.04c0-2.3-1.87-4.17-4.17-4.17h-41.74v8.35h37.57v20.87ZM145.83,95.74"/>
  <path class="cls-1" d="M154.17,204.26h-8.35v33.39c0,2.3,1.87,4.17,4.17,4.17h58.44v-8.35h-54.26v-29.22ZM154.17,204.26"/>
</svg>