<?xml version="1.0" encoding="UTF-8"?>
<svg id="_圖層_1" data-name="圖層 1" xmlns="http://www.w3.org/2000/svg" viewBox="0 0 300 300">
  <defs>
    <style>
      .cls-1 {
        fill: #383636;
      }

      .cls-2 {
        fill: #d61718;
      }
    </style>
  </defs>
  <path class="cls-1" d="M269.58,236.59V92.27c0-6.82-5.55-12.37-12.37-12.37h-4.12v-16.5h-8.51c-1.54,0-2.91-.93-3.55-2.49-.6-1.44-.28-3.07.81-4.16l6.01-6.02-23.32-23.32-6.02,6.02c-1.09,1.09-2.72,1.39-4.27.76-1.45-.59-2.38-1.97-2.38-3.51v-8.51h-32.99v8.51c0,1.54-.94,2.92-2.49,3.56-1.45.6-3.08.28-4.17-.8l-6.02-6.02-23.32,23.32,6.01,6.02c1.09,1.09,1.4,2.72.76,4.27-.59,1.45-1.97,2.38-3.51,2.38h-8.51v16.5h-33.82c-3.85-19.05-20.6-32.99-40.41-32.99-22.73,0-41.23,18.5-41.23,41.24,0,9.24,3.09,17.75,8.25,24.63v123.81c-4.55,0-8.25,3.7-8.25,8.25v4.12c0,15.92,12.95,28.86,28.86,28.86h197.92c15.91,0,28.86-12.95,28.86-28.86v-4.12c0-4.55-3.7-8.25-8.25-8.25ZM257.21,88.15c2.28,0,4.12,1.85,4.12,4.12v144.32H38.67v-115.54c2.54,1.92,5.3,3.57,8.25,4.86v102.43h206.17V96.4h-65.14l-5.5-8.25h74.76ZM114.81,170.62l-5.5,8.25h11.83v41.23H55.16v-91.55c2.67.54,5.42.83,8.25.83v41.24h51.4ZM124.71,170.62l8.79-13.18,8.79,13.18h-4.67v49.48h-8.25v-49.48h-4.67ZM129.38,148.75l-9.08,13.62h-48.65v-32.99h57.73v19.37ZM195.36,63.41c-9.1,0-16.49,7.4-16.49,16.5h-8.25c0-13.65,11.09-24.74,24.74-24.74s24.74,11.1,24.74,24.74h-8.25c0-9.1-7.4-16.5-16.49-16.5ZM203.6,79.9h-16.49c0-4.55,3.7-8.25,8.25-8.25s8.25,3.7,8.25,8.25ZM174.74,91.46l8.79,13.18h-4.67v115.45h-8.25v-115.45h-4.67l8.79-13.18ZM193.44,104.64h51.4v115.45h-16.5v-57.73h11.83l-24.2-36.3-24.2,36.3h11.83v57.73h-16.49v-107.21h11.83l-5.49-8.25ZM207.18,154.12l8.79-13.18,8.79,13.18h-4.67v65.97h-8.25v-65.97h-4.67ZM145.88,71.66h.26c4.9,0,9.27-2.94,11.17-7.58,1.88-4.53.86-9.69-2.59-13.14l-.19-.19,11.67-11.66.18.18c3.45,3.45,8.6,4.46,13.23,2.56,4.55-1.87,7.49-6.24,7.49-11.14v-.26h16.49v.26c0,4.9,2.94,9.27,7.58,11.18,4.54,1.88,9.7.86,13.15-2.59l.18-.18,11.66,11.66-.18.18c-3.46,3.45-4.48,8.61-2.56,13.23,1.87,4.56,6.24,7.5,11.14,7.5h.26v8.25h-16.5c0-18.19-14.8-32.99-32.99-32.99s-32.99,14.8-32.99,32.99h-16.5v-8.25ZM104.64,88.15h62.39l-5.49,8.25h-57.73c.54-2.66.83-5.42.83-8.25ZM156.04,104.64l-5.5,8.25h11.83v107.21h-16.5v-41.23h11.83l-20.07-30.11v-27.62h-49.59c5.68-4.25,10.25-9.92,13.13-16.49h54.87ZM63.41,55.16c16.84,0,30.94,12.6,32.79,29.32.13,1.2.2,2.43.2,3.67,0,18.19-14.8,32.99-32.99,32.99s-32.99-14.8-32.99-32.99,14.8-32.99,32.99-32.99ZM269.58,248.96c0,11.37-9.25,20.62-20.62,20.62h-12.37v-16.49h-8.25v16.49h-8.25v-16.49h-8.25v16.49h-8.25v-16.49h-8.25v16.49H51.04c-11.37,0-20.62-9.25-20.62-20.62v-4.12h239.16v4.12Z"/>
  <path class="cls-2" d="M253.09,79.9v-16.5h-8.51c-1.54,0-2.91-.93-3.55-2.49-.6-1.44-.28-3.07.81-4.16l6.01-6.02-23.32-23.32-6.02,6.02c-1.09,1.09-2.72,1.39-4.27.76-1.45-.59-2.38-1.97-2.38-3.51v-8.51h-32.99v8.51c0,1.54-.94,2.92-2.49,3.56-1.45.6-3.08.28-4.17-.8l-6.02-6.02-23.32,23.32,6.01,6.02c1.09,1.09,1.4,2.72.76,4.27-.59,1.45-1.97,2.38-3.51,2.38h-8.51v16.5M195.36,63.41c-9.1,0-16.49,7.4-16.49,16.5h-8.25c0-13.65,11.09-24.74,24.74-24.74s24.74,11.1,24.74,24.74h-8.25c0-9.1-7.4-16.5-16.49-16.5ZM203.6,79.9h-16.49c0-4.55,3.7-8.25,8.25-8.25s8.25,3.7,8.25,8.25ZM145.88,71.66h.26c4.9,0,9.27-2.94,11.17-7.58,1.88-4.53.86-9.69-2.59-13.14l-.19-.19,11.67-11.66.18.18c3.45,3.45,8.6,4.46,13.23,2.56,4.55-1.87,7.49-6.24,7.49-11.14v-.26h16.49v.26c0,4.9,2.94,9.27,7.58,11.18,4.54,1.88,9.7.86,13.15-2.59l.18-.18,11.66,11.66-.18.18c-3.46,3.45-4.48,8.61-2.56,13.23,1.87,4.56,6.24,7.5,11.14,7.5h.26v8.25h-16.5c0-18.19-14.8-32.99-32.99-32.99s-32.99,14.8-32.99,32.99h-16.5v-8.25Z"/>
  <path class="cls-2" d="M46.91,64.98v46.33l46.33-23.16-46.33-23.17ZM55.16,78.33l19.65,9.82-19.65,9.82v-19.65Z"/>
  <rect class="cls-2" x="64.99" y="178.86" width="16.5" height="8.25"/>
  <rect class="cls-2" x="89.74" y="178.86" width="16.49" height="8.25"/>
  <rect class="cls-2" x="64.99" y="195.36" width="49.48" height="8.25"/>
</svg>