<?xml version="1.0" encoding="UTF-8"?>
<svg id="_圖層_1" data-name="圖層 1" xmlns="http://www.w3.org/2000/svg" viewBox="0 0 300 300">
  <defs>
    <style>
      .cls-1 {
        fill: #383636;
      }

      .cls-2 {
        fill: #d61718;
      }
    </style>
  </defs>
  <path class="cls-1" d="M271.12,125.96c-2.94-2.9-6.91-4.51-11.04-4.46h-7.37c-2.58,0-4.87-1.64-5.68-4.08-2.16-6.42-4.96-12.6-8.36-18.45l28.92-28.6c8.77-8.78,8.77-23,0-31.78l-7.42-7.18c-4.21-4.17-9.9-6.5-15.82-6.48-5.95,0-11.65,2.38-15.82,6.62l-29.11,28.73c-5.37-2.92-10.98-5.39-16.76-7.37-2.44-.81-4.07-3.11-4.04-5.68v-7.42c-.02-8.51-6.93-15.4-15.44-15.4h-26.34c-8.51,0-15.42,6.89-15.44,15.4v7.37c0,2.58-1.64,4.87-4.09,5.68-4.45,1.52-8.79,3.32-13,5.4-2.29,1.12-5.04.67-6.86-1.12l-5.17-5.21c-6.05-6-15.82-6-21.88,0l-18.5,18.5c-2.91,2.9-4.54,6.83-4.54,10.94s1.64,8.04,4.54,10.94l5.16,5.21c1.83,1.81,2.3,4.59,1.17,6.9-2.09,4.2-3.88,8.55-5.35,13.01-.84,2.45-3.14,4.09-5.73,4.08h-7.41c-8.53,0-15.45,6.92-15.45,15.45v26.15c0,4.1,1.63,8.03,4.52,10.92,2.9,2.89,6.82,4.52,10.92,4.52h7.37c2.58,0,4.87,1.64,5.68,4.08,1.52,4.45,3.32,8.79,5.4,13.01,1.13,2.31.65,5.09-1.17,6.9l-5.17,5.21c-2.98,2.86-4.68,6.81-4.69,10.94.04,4.13,1.73,8.07,4.69,10.94l18.5,18.5c6.06,6,15.82,6,21.88,0l5.21-5.21c1.79-1.82,4.54-2.31,6.86-1.22,4.2,2.08,8.55,3.87,13,5.35,2.45.84,4.09,3.14,4.09,5.73v7.37c0,8.53,6.91,15.45,15.44,15.45h26.34c4.1.01,8.04-1.61,10.95-4.51,2.91-2.9,4.54-6.84,4.54-10.94v-7.32c-.04-2.58,1.59-4.89,4.04-5.73,4.41-1.49,8.71-3.3,12.86-5.4,2.3-1.12,5.06-.65,6.86,1.17l5.21,5.21c6.06,6,15.82,6,21.88,0l18.5-18.5c6-6.06,6-15.82,0-21.88l-5.03-5.16c-1.83-1.81-2.3-4.59-1.17-6.9,2.11-4.2,3.91-8.55,5.4-13.01.81-2.45,3.11-4.09,5.68-4.08h7.37c8.53,0,15.45-6.92,15.45-15.45v-26.15c0-4.13-1.65-8.09-4.59-10.99ZM235,38.16c2.45-2.47,5.77-3.85,9.25-3.85h.24c3.5-.03,6.88,1.31,9.39,3.76l7.23,7.18c5.1,5.11,5.1,13.38,0,18.5l-5.82,5.73-26.05-25.59,5.77-5.73ZM222.56,50.51l25.87,25.59-93.15,92.02-25.87-25.59,93.15-92.02ZM119.6,139.2c-.62.6-1.06,1.37-1.27,2.21l-10.75,42.82c-.5,1.67-.03,3.48,1.22,4.69.88.9,2.08,1.4,3.33,1.41.37.05.75.05,1.13,0l43.29-10.66c.83-.17,1.58-.6,2.16-1.22l57.09-56.34c.84,1.89,1.6,3.81,2.25,5.77h-.24c9.61,29.54-.91,61.91-26.05,80.15-25.14,18.24-59.18,18.21-84.28-.09-25.1-18.3-35.55-50.69-25.88-80.21,9.67-29.52,37.26-49.44,68.32-49.34,8.9,0,17.73,1.67,26.01,4.93l-56.34,55.87ZM125.28,151.64l20.76,20.52-27.56,6.81,6.81-27.32ZM260.31,169.16h-7.61c-6.55.08-12.34,4.3-14.42,10.51-1.31,4.03-2.88,7.96-4.69,11.79-2.91,5.92-1.74,13.02,2.91,17.7l5.21,5.21c1.15,1.14,1.79,2.68,1.79,4.3s-.64,3.16-1.79,4.3l-18.87,18.73c-1.14,1.14-2.68,1.79-4.3,1.79s-3.16-.64-4.3-1.79l-5.21-5.21c-4.6-4.77-11.74-6.04-17.7-3.15-3.84,1.82-7.79,3.39-11.83,4.69-6.29,2.08-10.52,7.98-10.47,14.6v7.37c.08,3.34-2.53,6.12-5.87,6.25h-26.34c-1.6,0-3.15-.64-4.28-1.77s-1.77-2.68-1.77-4.28v-7.37c.03-6.62-4.19-12.51-10.47-14.6-4.04-1.3-7.99-2.87-11.83-4.69-5.91-2.95-13.05-1.78-17.7,2.91l-5.21,5.26c-1.14,1.14-2.68,1.79-4.3,1.79s-3.16-.64-4.29-1.79l-18.5-18.78c-1.15-1.12-1.8-2.67-1.78-4.27-.02-1.62.63-3.18,1.78-4.32l5.21-5.21c4.7-4.65,5.88-11.79,2.91-17.7-1.82-3.84-3.39-7.79-4.69-11.83-2.12-6.26-7.99-10.48-14.6-10.47h-7.56c-3.35,0-6.06-2.71-6.06-6.06v-26.1c0-3.34,2.71-6.06,6.06-6.06h7.37c6.62.04,12.51-4.19,14.6-10.47,1.3-4.06,2.87-8.03,4.69-11.88,2.96-5.89,1.78-13.02-2.91-17.65l-5.03-5.21c-2.36-2.38-2.36-6.21,0-8.59l18.5-18.5c1.14-1.14,2.68-1.79,4.29-1.79s3.16.64,4.3,1.79l5.21,5.21c4.66,4.67,11.79,5.85,17.7,2.91,3.84-1.82,7.79-3.39,11.83-4.69,6.27-2.1,10.49-7.99,10.47-14.6v-7.61c0-3.34,2.71-6.06,6.05-6.06h26.34c3.28.1,5.89,2.78,5.91,6.06v7.37c-.03,6.62,4.19,12.51,10.47,14.6,4.35,1.51,8.58,3.34,12.68,5.45l-9.01,8.87c-10.45-4.74-21.81-7.18-33.29-7.13-34.96.07-65.92,22.63-76.69,55.9-10.78,33.27,1.07,69.69,29.35,90.25,28.28,20.56,66.58,20.6,94.91.1,28.32-20.51,40.24-56.9,29.54-90.19-1.19-3.53-2.62-6.98-4.27-10.33l8.92-8.82c2.64,4.64,4.85,9.52,6.62,14.55,2.12,6.26,7.99,10.47,14.6,10.47h7.37c3.35,0,6.06,2.71,6.06,6.06l.05,26.15c0,3.35-2.71,6.06-6.05,6.06Z"/>
  <path class="cls-2" d="M235,38.16c2.45-2.47,5.77-3.85,9.25-3.85h.24c3.5-.03,6.88,1.31,9.39,3.76l7.23,7.18c5.1,5.11,5.1,13.38,0,18.5l-5.82,5.73-26.05-25.59,5.77-5.73ZM222.56,50.51l25.87,25.59-93.15,92.02-25.87-25.59,93.15-92.02ZM125.28,151.64l20.76,20.52-27.56,6.81,6.81-27.32ZM175.94,83.33l-56.34,55.87c-.62.6-1.06,1.37-1.27,2.21l-10.75,42.82c-.5,1.67-.03,3.48,1.22,4.69.88.9,2.08,1.4,3.33,1.41.37.05.75.05,1.13,0l43.29-10.66c.83-.17,1.58-.6,2.16-1.22l57.09-56.34,6.95-7.42,8.92-8.82,7-6.9,28.92-28.6c8.77-8.78,8.77-23,0-31.78l-7.42-7.18c-4.21-4.17-9.9-6.5-15.82-6.48-5.95,0-11.65,2.38-15.82,6.62l-29.11,28.73-23.48,23.05ZM192.23,67.23l-9.01,8.87"/>
</svg>