<?xml version="1.0" encoding="UTF-8"?>
<svg id="_圖層_1" data-name="圖層 1" xmlns="http://www.w3.org/2000/svg" viewBox="0 0 300 300">
  <defs>
    <style>
      .cls-1 {
        fill: none;
      }

      .cls-2 {
        fill: #383636;
      }

      .cls-3 {
        fill: #d61718;
      }
    </style>
  </defs>
  <rect class="cls-1" x="232.55" y="29.86" width="20.75" height="20.75"/>
  <rect class="cls-1" x="252.8" y="76.87" width="20.75" height="20.75"/>
  <path class="cls-2" d="M116.06,60.22c0,2.12,1.72,3.84,3.84,3.84h44.53c2.13,0,3.84-1.72,3.84-3.84s-1.72-3.84-3.84-3.84h-44.53c-2.13,0-3.84,1.72-3.84,3.84Z"/>
  <path class="cls-2" d="M247.71,173.19c1.16-6.37,1.75-12.86,1.75-19.34,0-29.94-12.62-58.59-34.69-78.91v-18.31c0-11.72-9.53-21.26-21.25-21.26h-15.33c-2.12,0-3.84,1.72-3.84,3.84s1.72,3.84,3.84,3.84h15.33c7.48,0,13.57,6.08,13.57,13.57v56.27c-14.08-20.85-37.93-34.59-64.92-34.59s-50.78,13.57-64.93,34.52v-56.2c0-7.48,6.09-13.57,13.57-13.57h69.45c2.12,0,3.84-1.72,3.84-3.84s-1.72-3.84-3.84-3.84h-69.45c-11.72,0-21.26,9.53-21.26,21.26v18.3c-14.21,13.08-24.56,29.56-30.11,47.91h-13.93c-3.72,0-6.75,3.03-6.75,6.75v22.63c0,3.72,3.03,6.75,6.75,6.75h9.49c1.35,28.05,13.79,54.67,34.55,73.8v23.8c0,11.72,9.53,21.26,21.26,21.26h102.72c11.72,0,21.25-9.54,21.25-21.26v-13.53h5.45c2.12,0,3.84-1.72,3.84-3.84s-1.72-3.84-3.84-3.84h-44.21c-1.08,0-1.96-.88-1.96-1.96v-16.13l14.73-14.73,20.36,20.36c2.63,2.63,6.91,2.63,9.54,0l9.24-9.24,15.62,15.62v4.13c0,1.08-.88,1.96-1.96,1.96h-3.42c-2.12,0-3.84,1.72-3.84,3.84s1.72,3.84,3.84,3.84h3.42c5.32,0,9.65-4.33,9.65-9.65v-52.75c0-3-1.38-5.68-3.53-7.45ZM214.78,85.76c17.25,18.4,27,42.76,27,68.09,0,5.74-.51,11.49-1.49,17.15h-21.16c.88-4.74,1.33-9.56,1.33-14.4,0-10.33-2.02-20.2-5.67-29.24v-41.6ZM26.46,151.28v-20.75h20.75v20.75h-20.75ZM72.08,165.11c-.25-2.11-2.17-3.61-4.27-3.36-2.11.25-3.61,2.17-3.36,4.28.84,6.97,2.58,13.63,5.1,19.88v36.04c-16.06-17.14-25.63-39.51-26.85-62.98h5.45c3.72,0,6.75-3.03,6.75-6.75v-22.63c0-3.72-3.03-6.75-6.75-6.75h-.65c4.54-13.84,12.05-26.46,22.05-37.1v41.55c-2.52,6.25-4.27,12.91-5.1,19.88-.25,2.11,1.25,4.02,3.36,4.28,2.1.25,4.02-1.25,4.27-3.36.78-6.46,2.42-12.63,4.8-18.41.05-.11.1-.23.14-.34,10.73-25.66,36.09-43.33,65.15-43.33,38.93,0,70.6,31.67,70.6,70.6,0,4.85-.5,9.68-1.48,14.4h-23.48v-43.44c0-5.32-4.33-9.65-9.65-9.65h-71.99c-5.32,0-9.65,4.33-9.65,9.65v58.09c0,5.32,4.33,9.65,9.65,9.65h60.19v27.64c-7.74,2.83-15.87,4.27-24.2,4.27-35.7,0-65.83-26.69-70.09-62.08ZM176.02,243.04h31.08v13.53c0,7.48-6.08,13.57-13.57,13.57h-102.72c-7.48,0-13.57-6.09-13.57-13.57v-56.2c14.15,20.95,38.12,34.52,64.92,34.52,8.3,0,16.41-1.28,24.2-3.82v2.33c0,5.32,4.33,9.65,9.65,9.65ZM166.37,180.65v6.96h-60.19c-1.08,0-1.96-.88-1.96-1.96v-58.09c0-1.08.88-1.96,1.96-1.96h71.99c1.08,0,1.96.88,1.96,1.96v43.44h-4.1c-5.32,0-9.65,4.33-9.65,9.65ZM243.55,218.39l-10.85-10.85c-2.63-2.63-6.91-2.63-9.54,0l-9.24,9.24-20.36-20.36c-1.27-1.27-2.97-1.98-4.77-1.98s-3.49.7-4.77,1.98l-9.96,9.96v-25.74c0-1.08.88-1.96,1.96-1.96h42.6c0,.17-.02.34-.02.51,0,10.6,8.62,19.22,19.22,19.22,1.95,0,3.88-.3,5.73-.88v20.85ZM243.55,189.2c-1.74,1-3.68,1.53-5.73,1.53-6.36,0-11.53-5.17-11.53-11.53,0-.17.01-.34.02-.51h15.29c1.08,0,1.96.88,1.96,1.96v8.55Z"/>
  <path class="cls-3" d="M26.46,151.28v-20.75h20.75v20.75h-20.75ZM39.44,122.84h-13.93c-3.72,0-6.75,3.03-6.75,6.75v22.63c0,3.72,3.03,6.75,6.75,6.75h22.63c3.72,0,6.75-3.03,6.75-6.75v-22.63c0-3.72-3.03-6.75-6.75-6.75h-8.71Z"/>
  <path class="cls-2" d="M124.25,248.44h-.63c-2.13,0-3.84,1.72-3.84,3.84s1.72,3.84,3.84,3.84h.63c2.13,0,3.84-1.72,3.84-3.84s-1.72-3.84-3.84-3.84Z"/>
  <path class="cls-2" d="M142.48,248.44h-.63c-2.13,0-3.84,1.72-3.84,3.84s1.72,3.84,3.84,3.84h.63c2.13,0,3.84-1.72,3.84-3.84s-1.72-3.84-3.84-3.84Z"/>
  <path class="cls-2" d="M160.71,248.44h-.63c-2.13,0-3.84,1.72-3.84,3.84s1.72,3.84,3.84,3.84h.63c2.13,0,3.84-1.72,3.84-3.84s-1.72-3.84-3.84-3.84Z"/>
  <polygon class="cls-3" points="132.62 168.24 152.78 156.6 132.62 144.96 132.62 168.24"/>
  <path class="cls-3" d="M231.6,58.3h22.63c3.72,0,6.75-3.03,6.75-6.74v-22.64c0-3.72-3.03-6.75-6.75-6.75h-22.63c-3.72,0-6.75,3.03-6.75,6.75v22.64c0,3.72,3.03,6.74,6.75,6.74ZM232.55,29.86h20.75v20.75h-20.75v-20.75Z"/>
  <path class="cls-3" d="M274.49,69.18h-22.63c-3.72,0-6.75,3.03-6.75,6.75v22.63c0,3.72,3.03,6.75,6.75,6.75h22.63c3.72,0,6.75-3.03,6.75-6.75v-22.63c0-3.72-3.03-6.75-6.75-6.75ZM273.54,97.62h-20.75v-20.75h20.75v20.75Z"/>
</svg>