<?xml version="1.0" encoding="UTF-8"?>
<svg width="45px" height="45px" viewBox="0 0 45 45" version="1.1" xmlns="http://www.w3.org/2000/svg" xmlns:xlink="http://www.w3.org/1999/xlink">
    <title>icon-ig</title>
    <g id="組件" stroke="none" stroke-width="1" fill="none" fill-rule="evenodd">
        <g id="footer" transform="translate(-212, -236)">
            <g id="icon-ig" transform="translate(213, 237)">
                <circle id="橢圓形copy" stroke="#393636" cx="21.5" cy="21.5" r="21.5"></circle>
                <g id="instagram---FontAwesome" transform="translate(13.4286, 13.2857)" fill="#393636" fill-rule="nonzero">
                    <path d="M10.5915179,10.5915179 C11.1495536,10.0334821 11.4285714,9.36011905 11.4285714,8.57142857 C11.4285714,7.7827381 11.1495536,7.109375 10.5915179,6.55133929 C10.0334821,5.99330357 9.36011905,5.71428571 8.57142857,5.71428571 C7.7827381,5.71428571 7.109375,5.99330357 6.55133929,6.55133929 C5.99330357,7.109375 5.71428571,7.7827381 5.71428571,8.57142857 C5.71428571,9.36011905 5.99330357,10.0334821 6.55133929,10.5915179 C7.109375,11.1495536 7.7827381,11.4285714 8.57142857,11.4285714 C9.36011905,11.4285714 10.0334821,11.1495536 10.5915179,10.5915179 Z M11.6852679,5.45758929 C12.5409226,6.31324405 12.96875,7.35119048 12.96875,8.57142857 C12.96875,9.79166667 12.5409226,10.8296131 11.6852679,11.6852679 C10.8296131,12.5409226 9.79166667,12.96875 8.57142857,12.96875 C7.35119048,12.96875 6.31324405,12.5409226 5.45758929,11.6852679 C4.60193452,10.8296131 4.17410714,9.79166667 4.17410714,8.57142857 C4.17410714,7.35119048 4.60193452,6.31324405 5.45758929,5.45758929 C6.31324405,4.60193452 7.35119048,4.17410714 8.57142857,4.17410714 C9.79166667,4.17410714 10.8296131,4.60193452 11.6852679,5.45758929 Z M13.8727679,3.27008929 C14.0736607,3.47098214 14.1741071,3.71279762 14.1741071,3.99553571 C14.1741071,4.27827381 14.0736607,4.52008929 13.8727679,4.72098214 C13.671875,4.921875 13.4300595,5.02232143 13.1473214,5.02232143 C12.8645833,5.02232143 12.6227679,4.921875 12.421875,4.72098214 C12.2209821,4.52008929 12.1205357,4.27827381 12.1205357,3.99553571 C12.1205357,3.71279762 12.2209821,3.47098214 12.421875,3.27008929 C12.6227679,3.06919643 12.8645833,2.96875 13.1473214,2.96875 C13.4300595,2.96875 13.671875,3.06919643 13.8727679,3.27008929 Z M9.41964286,1.54017857 C8.90625,1.54017857 8.6235119,1.54017857 8.57142857,1.54017857 C8.51934524,1.54017857 8.23474702,1.53831845 7.71763393,1.53459821 C7.20052083,1.53087798 6.80803571,1.53087798 6.54017857,1.53459821 C6.27232143,1.53831845 5.91331845,1.54947917 5.46316964,1.56808036 C5.01302083,1.58668155 4.62983631,1.62388393 4.31361607,1.6796875 C3.99739583,1.73549107 3.73139881,1.80431548 3.515625,1.88616071 C3.14360119,2.03497024 2.81622024,2.25074405 2.53348214,2.53348214 C2.25074405,2.81622024 2.03497024,3.14360119 1.88616071,3.515625 C1.80431548,3.73139881 1.73549107,3.99739583 1.6796875,4.31361607 C1.62388393,4.62983631 1.58668155,5.01302083 1.56808036,5.46316964 C1.54947917,5.91331845 1.53831845,6.27232143 1.53459821,6.54017857 C1.53087798,6.80803571 1.53087798,7.20052083 1.53459821,7.71763393 C1.53831845,8.23474702 1.54017857,8.51934524 1.54017857,8.57142857 C1.54017857,8.6235119 1.53831845,8.90811012 1.53459821,9.42522321 C1.53087798,9.94233631 1.53087798,10.3348214 1.53459821,10.6026786 C1.53831845,10.8705357 1.54947917,11.2295387 1.56808036,11.6796875 C1.58668155,12.1298363 1.62388393,12.5130208 1.6796875,12.8292411 C1.73549107,13.1454613 1.80431548,13.4114583 1.88616071,13.6272321 C2.03497024,13.999256 2.25074405,14.3266369 2.53348214,14.609375 C2.81622024,14.8921131 3.14360119,15.1078869 3.515625,15.2566964 C3.73139881,15.3385417 3.99739583,15.4073661 4.31361607,15.4631696 C4.62983631,15.5189732 5.01302083,15.5561756 5.46316964,15.5747768 C5.91331845,15.593378 6.27232143,15.6045387 6.54017857,15.6082589 C6.80803571,15.6119792 7.20052083,15.6119792 7.71763393,15.6082589 C8.23474702,15.6045387 8.51934524,15.6026786 8.57142857,15.6026786 C8.6235119,15.6026786 8.90811012,15.6045387 9.42522321,15.6082589 C9.94233631,15.6119792 10.3348214,15.6119792 10.6026786,15.6082589 C10.8705357,15.6045387 11.2295387,15.593378 11.6796875,15.5747768 C12.1298363,15.5561756 12.5130208,15.5189732 12.8292411,15.4631696 C13.1454613,15.4073661 13.4114583,15.3385417 13.6272321,15.2566964 C13.999256,15.1078869 14.3266369,14.8921131 14.609375,14.609375 C14.8921131,14.3266369 15.1078869,13.999256 15.2566964,13.6272321 C15.3385417,13.4114583 15.4073661,13.1454613 15.4631696,12.8292411 C15.5189732,12.5130208 15.5561756,12.1298363 15.5747768,11.6796875 C15.593378,11.2295387 15.6045387,10.8705357 15.6082589,10.6026786 C15.6119792,10.3348214 15.6119792,9.94233631 15.6082589,9.42522321 C15.6045387,8.90811012 15.6026786,8.6235119 15.6026786,8.57142857 C15.6026786,8.51934524 15.6045387,8.23474702 15.6082589,7.71763393 C15.6119792,7.20052083 15.6119792,6.80803571 15.6082589,6.54017857 C15.6045387,6.27232143 15.593378,5.91331845 15.5747768,5.46316964 C15.5561756,5.01302083 15.5189732,4.62983631 15.4631696,4.31361607 C15.4073661,3.99739583 15.3385417,3.73139881 15.2566964,3.515625 C15.1078869,3.14360119 14.8921131,2.81622024 14.609375,2.53348214 C14.3266369,2.25074405 13.999256,2.03497024 13.6272321,1.88616071 C13.4114583,1.80431548 13.1454613,1.73549107 12.8292411,1.6796875 C12.5130208,1.62388393 12.1298363,1.58668155 11.6796875,1.56808036 C11.2295387,1.54947917 10.8705357,1.53831845 10.6026786,1.53459821 C10.3348214,1.53087798 9.94047619,1.5327381 9.41964286,1.54017857 Z M17.0870536,5.03348214 C17.124256,5.68824405 17.1428571,6.86755952 17.1428571,8.57142857 C17.1428571,10.2752976 17.124256,11.4546131 17.0870536,12.109375 C17.0126488,13.656994 16.5513393,14.8549107 15.703125,15.703125 C14.8549107,16.5513393 13.656994,17.0126488 12.109375,17.0870536 C11.4546131,17.124256 10.2752976,17.1428571 8.57142857,17.1428571 C6.86755952,17.1428571 5.68824405,17.124256 5.03348214,17.0870536 C3.4858631,17.0126488 2.28794643,16.5513393 1.43973214,15.703125 C0.591517857,14.8549107 0.130208333,13.656994 0.0558035714,12.109375 C0.0186011905,11.4546131 0,10.2752976 0,8.57142857 C0,6.86755952 0.0186011905,5.68824405 0.0558035714,5.03348214 C0.130208333,3.4858631 0.591517857,2.28794643 1.43973214,1.43973214 C2.28794643,0.591517857 3.4858631,0.130208333 5.03348214,0.0558035714 C5.68824405,0.0186011905 6.86755952,0 8.57142857,0 C10.2752976,0 11.4546131,0.0186011905 12.109375,0.0558035714 C13.656994,0.130208333 14.8549107,0.591517857 15.703125,1.43973214 C16.5513393,2.28794643 17.0126488,3.4858631 17.0870536,5.03348214 Z" id="Shape"></path>
                </g>
            </g>
        </g>
    </g>
</svg>