<?xml version="1.0" encoding="UTF-8"?>
<svg id="_圖層_1" data-name="圖層 1" xmlns="http://www.w3.org/2000/svg" viewBox="0 0 300 300">
  <defs>
    <style>
      .cls-1 {
        fill: #383636;
      }

      .cls-2 {
        fill: #d61718;
      }
    </style>
  </defs>
  <path class="cls-1" d="M118.56,199.4c-2.29-6.02-9.02-9.04-15.03-6.75-.5.19-.98.41-1.44.66l-5.93-15.57c-2.07-5.43-8.2-8.19-13.63-6.12-5.3,2.02-8.05,7.91-6.26,13.24-6.57,8.41-16.7,16.55-29.2,23.21-.87-.4-1.89-.47-2.86-.1l-12.48,4.75c-9.48,3.6-14.29,14.31-10.68,23.8,3.35,8.8,12.82,13.57,21.75,11.32l10.85,20.76s0,0,0,.01c.89,1.7,2.34,2.83,4.2,3.3h0c1.81.46,3.53.19,5.09-.78,0,0,5.33-2.9,5.33-2.9.09-.05.17-.1.25-.15,2.87-1.87,3.83-5.56,2.25-8.61l-10.03-19.32c13.26-3.06,25.72-3.61,35.88-1.76,2.21,5.17,8.17,7.73,13.47,5.72,5.43-2.07,8.18-8.21,6.11-13.63l-5.93-15.57c.51-.12,1.01-.27,1.51-.46,6.02-2.29,9.04-9.02,6.75-15.03ZM42.23,240.29c-5.69,2.17-12.12-.72-14.28-6.4h0c-2.17-5.69.72-12.12,6.41-14.28l9.03-3.44,7.87,20.68-9.03,3.44ZM63.92,262.21l-4.1,2.22c-1.49-2.85-7.03-13.44-10.01-19.14l4.45-1.7,9.66,18.61ZM57.79,233.25l-7.13-18.74c11.8-6.3,21.6-13.87,28.62-21.75l14.35,37.71c-10.49-1.22-22.84-.36-35.84,2.78ZM107.49,237.19c-1.64.63-3.49-.2-4.11-1.84l-20.07-52.72c-.62-1.64.21-3.49,1.84-4.11,1.64-.62,3.49.21,4.11,1.85l20.07,52.72c.63,1.64-.21,3.48-1.84,4.11ZM109.19,207.53h0c-.52.2-1.05.29-1.58.28l-2.83-7.43c.39-.35.85-.64,1.37-.84h0c2.2-.84,4.67.27,5.51,2.48h0c.84,2.21-.27,4.67-2.48,5.51Z"/>
  <path class="cls-1" d="M65.53,99.68l-4.04,59.63c-.14,2.03,1.4,3.79,3.43,3.93,2.03.14,3.79-1.4,3.93-3.43l4.04-59.63c9.28-1.19,16.47-9.14,16.47-18.74,0-10.43-8.47-18.9-18.9-18.9s-18.9,8.47-18.9,18.9c0,8.72,5.92,16.08,13.97,18.25ZM70.46,69.91c6.36,0,11.52,5.16,11.52,11.52s-5.16,11.52-11.52,11.52-11.52-5.16-11.52-11.52,5.16-11.52,11.52-11.52Z"/>
  <path class="cls-1" d="M229.03,238.99c-8.19,0-15.13,5.39-17.47,12.82l-78.72-5.33c-2.03-.14-3.79,1.4-3.93,3.43-.14,2.03,1.4,3.79,3.43,3.93l78.47,5.32c.94,9.23,8.74,16.44,18.21,16.44,10.1,0,18.3-8.2,18.3-18.3s-8.2-18.3-18.3-18.3ZM229.03,268.22c-6.03,0-10.93-4.9-10.93-10.93s4.9-10.92,10.93-10.92,10.92,4.9,10.92,10.92-4.9,10.93-10.92,10.93Z"/>
  <path class="cls-2" d="M108.09,157.4c1.8.96,4.05.28,5.01-1.52l43.34-81.29c2.74.99,5.69,1.53,8.77,1.53,14.27,0,25.85-11.59,25.85-25.85s-11.58-25.86-25.85-25.86-25.86,11.58-25.86,25.86c0,8.54,4.16,16.12,10.55,20.83l-43.34,81.3c-.96,1.8-.28,4.05,1.53,5.01ZM146.76,50.26c0-10.18,8.27-18.45,18.45-18.45s18.45,8.27,18.45,18.45-8.27,18.45-18.45,18.45-18.45-8.27-18.45-18.45Z"/>
  <path class="cls-2" d="M260.05,170.07c-11.09,0-20.09,9-20.09,20.09,0,.67.03,1.34.1,1.99l-83.73,19.62c-1.98.46-3.21,2.45-2.75,4.43.46,1.98,2.45,3.21,4.43,2.75l84.11-19.71c3.32,6.53,10.1,11.01,17.92,11.01,11.09,0,20.09-9,20.09-20.09s-9-20.09-20.09-20.09ZM260.31,203.54c-7.04,0-12.76-5.72-12.76-12.76s5.72-12.76,12.76-12.76,12.76,5.72,12.76,12.76-5.72,12.76-12.76,12.76Z"/>
  <path class="cls-1" d="M181.57,127.07c0,3.66,1.2,7.05,3.22,9.79l-34.67,32.54c-1.48,1.39-1.55,3.73-.16,5.21,1.4,1.48,3.73,1.55,5.21.16l35.24-33.07c2.29,1.2,4.9,1.89,7.67,1.89,9.11,0,16.51-7.4,16.51-16.51s-7.4-16.51-16.51-16.51-16.51,7.4-16.51,16.51ZM198.09,117.94c5.04,0,9.14,4.09,9.14,9.14s-4.09,9.14-9.14,9.14-9.14-4.09-9.14-9.14,4.09-9.14,9.14-9.14Z"/>
  <path class="cls-2" d="M128.01,199.74l9.22-3.5c1.9-.72,2.86-2.86,2.14-4.76-.72-1.9-2.86-2.86-4.76-2.14l-9.22,3.5c-1.9.72-2.86,2.86-2.13,4.76.72,1.9,2.85,2.86,4.76,2.14Z"/>
  <path class="cls-2" d="M124.18,173.73c-1.58-1.28-3.9-1.05-5.19.53l-6.57,8.06c-1.29,1.58-1.05,3.9.53,5.19,1.58,1.29,3.9,1.05,5.19-.53l6.57-8.06c1.28-1.58,1.05-3.9-.53-5.19Z"/>
  <path class="cls-2" d="M139.82,214.83c.32-2.01-1.05-3.91-3.05-4.23l-10.27-1.66c-2.01-.32-3.91,1.05-4.23,3.05-.32,2.01,1.05,3.9,3.05,4.23l10.27,1.66c2.01.33,3.9-1.04,4.23-3.05Z"/>
</svg>