<?xml version="1.0" encoding="UTF-8"?>
<svg id="_圖層_1" data-name="圖層 1" xmlns="http://www.w3.org/2000/svg" viewBox="0 0 300 300">
  <defs>
    <style>
      .cls-1 {
        fill: #383636;
      }

      .cls-2 {
        fill: #d61718;
      }
    </style>
  </defs>
  <path class="cls-1" d="M81.52,236.74h-27.39c-12.6,0-22.83,10.23-22.83,22.83v13.7c0,2.52,2.04,4.57,4.57,4.57h63.91c2.52,0,4.57-2.05,4.57-4.57v-13.7c0-12.6-10.23-22.83-22.83-22.83ZM95.22,268.7h-54.78v-9.13c0-7.56,6.14-13.7,13.7-13.7h27.39c7.56,0,13.7,6.14,13.7,13.7v9.13Z"/>
  <path class="cls-1" d="M245.87,236.74h-27.39c-12.6,0-22.83,10.23-22.83,22.83v13.7c0,2.52,2.04,4.57,4.57,4.57h63.91c2.52,0,4.57-2.05,4.57-4.57v-13.7c0-12.6-10.23-22.83-22.83-22.83ZM259.56,268.7h-54.78v-9.13c0-7.56,6.14-13.7,13.7-13.7h27.39c7.56,0,13.7,6.14,13.7,13.7v9.13Z"/>
  <path class="cls-1" d="M163.7,236.74h-27.39c-12.6,0-22.83,10.23-22.83,22.83v13.7c0,2.52,2.04,4.57,4.57,4.57h63.91c2.52,0,4.57-2.05,4.57-4.57v-13.7c0-12.6-10.23-22.83-22.83-22.83ZM177.39,268.7h-54.78v-9.13c0-7.56,6.14-13.7,13.7-13.7h27.39c7.56,0,13.7,6.14,13.7,13.7v9.13Z"/>
  <path class="cls-1" d="M88.23,222c.71-3.71,1.57-7.99,2.42-12.22,1.38-6.84-.38-13.93-4.81-19.31-4.42-5.37-11.03-8.51-18.02-8.51s-13.6,3.14-18.02,8.51c-4.43,5.38-6.18,12.47-4.81,19.31.85,4.24,1.72,8.51,2.42,12.22,1.72,8.56,9.28,14.74,18.03,14.74h4.75c8.75,0,16.31-6.18,18.03-14.74ZM56.37,220.19l-2.43-12.17c-.8-4.19.24-8.47,2.96-11.75,2.65-3.29,6.7-5.19,10.93-5.19s8.28,1.9,10.93,5.19c2.71,3.27,3.76,7.56,2.96,11.75l-2.43,12.17c-.9,4.32-4.65,7.41-9.08,7.41h-4.75c-4.43,0-8.18-3.09-9.08-7.41Z"/>
  <path class="cls-1" d="M252.58,222c.71-3.71,1.57-7.99,2.42-12.22,1.38-6.84-.38-13.93-4.81-19.31-4.42-5.37-11.03-8.51-18.02-8.51s-13.6,3.14-18.02,8.51c-4.43,5.38-6.18,12.47-4.81,19.31.85,4.24,1.72,8.51,2.42,12.22,1.72,8.56,9.28,14.74,18.03,14.74h4.75c8.75,0,16.31-6.18,18.03-14.74ZM220.72,220.19l-2.43-12.17c-.8-4.19.24-8.47,2.96-11.75,2.65-3.29,6.7-5.19,10.93-5.19s8.28,1.9,10.93,5.19c2.71,3.27,3.76,7.56,2.96,11.75l-2.43,12.17c-.9,4.32-4.65,7.41-9.08,7.41h-4.75c-4.43,0-8.18-3.09-9.08-7.41Z"/>
  <path class="cls-1" d="M170.4,222c.71-3.71,1.57-7.99,2.42-12.22,1.38-6.84-.38-13.93-4.81-19.31-4.42-5.37-11.03-8.51-18.02-8.51s-13.6,3.14-18.02,8.51c-4.43,5.38-6.18,12.47-4.81,19.31.85,4.24,1.72,8.51,2.42,12.22,1.72,8.56,9.28,14.74,18.03,14.74h4.75c8.75,0,16.31-6.18,18.03-14.74ZM138.54,220.19l-2.43-12.17c-.8-4.19.24-8.47,2.96-11.75,2.65-3.29,6.7-5.19,10.93-5.19s8.28,1.9,10.93,5.19c2.71,3.27,3.76,7.56,2.96,11.75l-2.43,12.17c-.9,4.32-4.65,7.41-9.08,7.41h-4.75c-4.43,0-8.18-3.09-9.08-7.41Z"/>
  <path class="cls-2" d="M150,71.15c-20.4,0-37,16.89-37,37.76,0,12.03,5.51,22.73,14.12,29.67v15.89c0,3.24,1.42,6.33,4.14,8.8,3.19,2.95,8.33,4.99,14.17,4.99h9.13c5.84,0,10.98-2.05,14.17-4.99,2.72-2.47,4.14-5.56,4.14-8.8v-15.89c8.61-6.94,14.12-17.64,14.12-29.67,0-20.88-16.59-37.76-37-37.76ZM163.74,154.47c0,1.1-.9,2-2,2.72-1.81,1.23-4.38,1.95-7.18,1.95h-9.13c-2.8,0-5.37-.72-7.18-1.95-1.1-.72-2-1.62-2-2.72v-10.51c4.24,1.75,8.9,2.71,13.74,2.71s9.51-.96,13.74-2.71v10.51ZM150,137.55c-15.41,0-27.87-12.84-27.87-28.63s12.45-28.63,27.87-28.63,27.87,12.84,27.87,28.63-12.45,28.63-27.87,28.63Z"/>
  <path class="cls-1" d="M245.87,22.17H54.13c-12.6,0-22.83,10.23-22.83,22.83v73.04c0,6.04,2.37,11.85,6.71,16.12,4.27,4.33,10.08,6.71,16.12,6.71h1.77l12.4,24.87c.72,1.47,2.19,2.42,3.81,2.52,1.61.1,3.18-.67,4.09-2.05l16.87-25.35h11.27c2.52,0,4.57-2.04,4.57-4.57s-2.05-4.57-4.57-4.57h-13.7c-1.52,0-2.95.75-3.81,2.05l-13.88,20.83-10.18-20.35s-1.24-2.52-4.14-2.52h-4.52c-3.62,0-7.13-1.42-9.7-3.99-2.57-2.57-3.99-6.09-3.99-9.7V45c0-7.56,6.14-13.7,13.7-13.7h191.74c7.56,0,13.7,6.14,13.7,13.7v73.04c0,3.62-1.42,7.13-3.99,9.7-2.57,2.57-6.09,3.99-9.7,3.99h-4.52c-2.52,0-4.52,3.32-4.14,2.52l-10.18,20.35-13.88-20.83c-.86-1.29-2.29-2.05-3.81-2.05h-13.7c-2.52,0-4.57,2.05-4.57,4.57s2.04,4.57,4.57,4.57h11.27l16.87,25.35c.91,1.38,2.48,2.14,4.09,2.05,1.62-.1,3.09-1.05,3.81-2.52l12.41-24.87h1.77c6.04,0,11.85-2.37,16.12-6.71,4.33-4.27,6.71-10.08,6.71-16.12V45c0-12.6-10.23-22.83-22.83-22.83Z"/>
  <path class="cls-2" d="M207.5,80.75c2.18-1.18,2.99-3.94,1.75-6.17-1.18-2.19-3.94-2.99-6.18-1.81l-13.78,7.61c-2.24,1.24-3.04,3.99-1.81,6.18,1.19,2.24,3.99,3.04,6.18,1.81l13.84-7.62Z"/>
  <path class="cls-2" d="M110.72,80.38l-13.78-7.61c-2.24-1.18-5-.38-6.18,1.81-1.24,2.23-.43,4.99,1.75,6.17l13.84,7.62c2.19,1.23,4.99.43,6.18-1.81,1.23-2.19.43-4.94-1.81-6.18Z"/>
  <path class="cls-2" d="M121.89,68.4c1.29,2.14,4.04,2.9,6.23,1.62,2.19-1.29,2.9-4.09,1.62-6.23l-8.33-14.17c-1.28-2.19-4.09-2.9-6.22-1.62-2.19,1.24-2.91,4.04-1.62,6.23l8.31,14.17Z"/>
  <path class="cls-2" d="M178.11,68.4l8.31-14.17c1.29-2.19.57-4.99-1.62-6.23-2.13-1.28-4.94-.57-6.22,1.62l-8.33,14.17c-1.28,2.14-.57,4.94,1.62,6.23,2.19,1.28,4.94.52,6.23-1.62Z"/>
  <path class="cls-2" d="M154.57,58.84v-13.84c0-2.52-2.05-4.57-4.57-4.57s-4.57,2.05-4.57,4.57v13.84c0,2.47,2.04,4.57,4.57,4.57s4.57-2.09,4.57-4.57Z"/>
</svg>