<?xml version="1.0" encoding="UTF-8"?>
<svg width="45px" height="45px" viewBox="0 0 45 45" version="1.1" xmlns="http://www.w3.org/2000/svg" xmlns:xlink="http://www.w3.org/1999/xlink">
    <title>icon-youtube</title>
    <g id="組件" stroke="none" stroke-width="1" fill="none" fill-rule="evenodd">
        <g id="footer" transform="translate(-278, -236)">
            <g id="icon-youtube" transform="translate(279, 237)">
                <circle id="橢圓形copycopy" stroke="#393636" cx="21.5" cy="21.5" r="21.5"></circle>
                <g id="ion-social-youtube---Ionicons" transform="translate(11, 14)" fill="#393636" fill-rule="nonzero">
                    <path d="M19.8828125,3.3203125 C19.9609375,4.7265625 20,6.11979167 20,7.5 C20,8.88020833 19.9609375,10.2734375 19.8828125,11.6796875 C19.8828125,12.5651042 19.6028646,13.3138021 19.0429688,13.9257812 C18.4830729,14.5377604 17.7994792,14.84375 16.9921875,14.84375 C14.9869792,14.9479167 12.65625,15 10,15 C7.34375,15 5.01302083,14.9479167 3.0078125,14.84375 C2.20052083,14.84375 1.51692708,14.5377604 0.95703125,13.9257812 C0.397135417,13.3138021 0.1171875,12.5651042 0.1171875,11.6796875 C0.0390625,10.2734375 0,8.88020833 0,7.5 C0,6.58854167 0.0520833333,5.1953125 0.15625,3.3203125 C0.15625,2.43489583 0.4296875,1.68619792 0.9765625,1.07421875 C1.5234375,0.462239583 2.20052083,0.15625 3.0078125,0.15625 C4.90885417,0.0520833333 7.12239583,0 9.6484375,0 L10,0 L10.3515625,0 C12.8776042,0 15.0911458,0.0520833333 16.9921875,0.15625 C17.7994792,0.15625 18.4830729,0.462239583 19.0429688,1.07421875 C19.6028646,1.68619792 19.8828125,2.43489583 19.8828125,3.3203125 Z M8.0859375,11.328125 L13.75,7.5 L8.0859375,3.6328125 L8.0859375,11.328125 Z" id="Shape"></path>
                </g>
            </g>
        </g>
    </g>
</svg>