<?xml version="1.0" encoding="UTF-8"?>
<svg id="_圖層_1" data-name="圖層 1" xmlns="http://www.w3.org/2000/svg" viewBox="0 0 300 300">
  <defs>
    <style>
      .cls-1 {
        fill: #383636;
      }

      .cls-2 {
        fill: #d61718;
      }
    </style>
  </defs>
  <path class="cls-1" d="M258.66,60.17H41.34c-10.56,0-19.15,8.59-19.15,19.15v141.36c0,10.56,8.59,19.15,19.15,19.15h217.33c10.56,0,19.15-8.59,19.15-19.15V79.32c0-10.56-8.6-19.15-19.16-19.15ZM271.45,220.68h0c0,7.05-5.73,12.79-12.79,12.79H41.34c-7.05,0-12.79-5.73-12.79-12.79V79.32c0-7.05,5.73-12.79,12.79-12.79h217.33c7.05,0,12.79,5.73,12.79,12.79v141.36Z"/>
  <path class="cls-2" d="M254.79,179.34h-40.64c-1.75,0-3.18,1.43-3.18,3.18s1.43,3.18,3.18,3.18h40.64c1.76,0,3.18-1.42,3.18-3.18s-1.42-3.18-3.18-3.18Z"/>
  <path class="cls-2" d="M198.67,179.34h-13.49c-1.75,0-3.18,1.43-3.18,3.18s1.43,3.18,3.18,3.18h13.49c1.75,0,3.18-1.42,3.18-3.18s-1.43-3.18-3.18-3.18Z"/>
  <path class="cls-2" d="M254.79,199.62h-69.62c-1.75,0-3.18,1.43-3.18,3.18s1.43,3.18,3.18,3.18h69.62c1.76,0,3.18-1.43,3.18-3.18s-1.42-3.18-3.18-3.18Z"/>
  <path class="cls-2" d="M254.79,218.34h-16.22c-1.76,0-3.18,1.42-3.18,3.18s1.42,3.18,3.18,3.18h16.22c1.76,0,3.18-1.43,3.18-3.18s-1.42-3.18-3.18-3.18Z"/>
  <path class="cls-2" d="M223.08,218.34h-37.91c-1.75,0-3.18,1.42-3.18,3.18s1.43,3.18,3.18,3.18h37.91c1.75,0,3.18-1.43,3.18-3.18s-1.42-3.18-3.18-3.18Z"/>
  <path class="cls-1" d="M154.28,219.89h-3.1v-68.6c0-1.75-1.43-3.18-3.18-3.18h-15.2c-1.76,0-3.18,1.43-3.18,3.18v68.61h-5.54v-44.4c0-1.75-1.43-3.18-3.18-3.18h-15.2c-1.75,0-3.18,1.43-3.18,3.18v44.4h-5.54v-56.88c0-1.76-1.43-3.18-3.18-3.18h-15.2c-1.75,0-3.18,1.43-3.18,3.18v56.87h-5.54v-31.91c0-1.75-1.43-3.18-3.18-3.18h-15.21c-1.76,0-3.18,1.43-3.18,3.18v31.91h-3.1c-1.76,0-3.18,1.42-3.18,3.18s1.42,3.18,3.18,3.18h109.07c1.76,0,3.18-1.43,3.18-3.18s-1.43-3.18-3.18-3.18ZM63.51,219.9h-8.84v-28.73h8.84v28.73ZM90.61,219.89h-8.84v-53.69h8.84v53.69ZM117.71,219.89h-8.84v-41.21h8.84v41.21ZM144.81,219.9h-8.83v-65.43h8.83v65.43Z"/>
  <path class="cls-1" d="M214.59,99.79c1.61.7,3.48-.04,4.18-1.65.7-1.61-.04-3.48-1.65-4.18-4.99-2.17-10.3-3.26-15.78-3.26-21.88,0-39.69,17.8-39.69,39.69,0,1.76,1.43,3.18,3.18,3.18s3.18-1.43,3.18-3.18c0-18.38,14.95-33.33,33.33-33.33,4.6,0,9.06.92,13.25,2.73Z"/>
  <path class="cls-1" d="M228.82,111.53c3.82,5.56,5.84,12.08,5.84,18.85,0,1.75,1.43,3.18,3.18,3.18s3.18-1.43,3.18-3.18c0-8.07-2.41-15.83-6.96-22.45-.99-1.45-2.97-1.82-4.42-.82-1.45.99-1.82,2.97-.82,4.43Z"/>
  <path class="cls-1" d="M201.34,84.59c1.75,0,3.18-1.43,3.18-3.18v-4.48c0-1.75-1.43-3.18-3.18-3.18s-3.18,1.43-3.18,3.18v4.48c0,1.75,1.42,3.18,3.18,3.18Z"/>
  <path class="cls-1" d="M224.24,90.72c.5.29,1.04.42,1.59.42,1.1,0,2.17-.57,2.76-1.59l2.24-3.88c.88-1.52.35-3.47-1.17-4.35-1.52-.88-3.47-.36-4.35,1.17l-2.24,3.88c-.88,1.52-.36,3.47,1.17,4.35Z"/>
  <path class="cls-1" d="M243.76,109.07c.54,0,1.09-.14,1.59-.42l3.88-2.24c1.52-.88,2.05-2.83,1.17-4.35-.88-1.52-2.83-2.05-4.35-1.17l-3.88,2.24c-1.52.88-2.05,2.83-1.17,4.35.59,1.02,1.66,1.59,2.76,1.59Z"/>
  <path class="cls-1" d="M254.79,127.2h-4.48c-1.76,0-3.18,1.43-3.18,3.18s1.43,3.18,3.18,3.18h4.48c1.76,0,3.18-1.43,3.18-3.18s-1.42-3.18-3.18-3.18Z"/>
  <path class="cls-1" d="M147.88,133.56h4.48c1.76,0,3.18-1.43,3.18-3.18s-1.43-3.18-3.18-3.18h-4.48c-1.76,0-3.18,1.43-3.18,3.18s1.43,3.18,3.18,3.18Z"/>
  <path class="cls-1" d="M160.51,103.13l-3.88-2.24c-1.52-.88-3.47-.36-4.35,1.17-.88,1.52-.36,3.47,1.17,4.35l3.88,2.24c.5.28,1.05.42,1.59.42,1.1,0,2.17-.57,2.76-1.59.88-1.52.36-3.47-1.16-4.35Z"/>
  <path class="cls-1" d="M174.09,89.56c.59,1.02,1.66,1.59,2.76,1.59.54,0,1.08-.14,1.59-.42,1.52-.88,2.05-2.83,1.17-4.35l-2.24-3.88c-.88-1.52-2.83-2.04-4.35-1.17-1.52.88-2.05,2.83-1.17,4.35l2.25,3.88Z"/>
  <path class="cls-1" d="M229.82,95.69c-1.36-1.11-3.36-.92-4.48.44l-20.86,25.41c-.98-.35-2.04-.55-3.14-.55-5.18,0-9.39,4.21-9.39,9.39s4.21,9.39,9.39,9.39,9.39-4.21,9.39-9.39c0-1.76-.49-3.39-1.33-4.79l20.87-25.41c1.11-1.36.91-3.37-.44-4.48ZM201.34,133.4c-1.67,0-3.03-1.36-3.03-3.02s1.36-3.02,3.03-3.02,3.02,1.36,3.02,3.02-1.36,3.02-3.02,3.02Z"/>
  <path class="cls-1" d="M201.34,127.36c-1.67,0-3.03,1.36-3.03,3.02s1.36,3.02,3.03,3.02,3.02-1.36,3.02-3.02-1.36-3.02-3.02-3.02Z"/>
  <path class="cls-2" d="M61.17,97.56h29.07c1.75,0,3.18-1.43,3.18-3.18s-1.43-3.18-3.18-3.18h-29.07c-1.76,0-3.18,1.43-3.18,3.18s1.43,3.18,3.18,3.18Z"/>
  <path class="cls-2" d="M45.2,97.56h.35c1.75,0,3.18-1.43,3.18-3.18s-1.43-3.18-3.18-3.18h-.35c-1.76,0-3.18,1.43-3.18,3.18s1.42,3.18,3.18,3.18Z"/>
  <path class="cls-2" d="M61.17,110.85h29.07c1.75,0,3.18-1.43,3.18-3.18s-1.43-3.18-3.18-3.18h-29.07c-1.76,0-3.18,1.43-3.18,3.18s1.43,3.18,3.18,3.18Z"/>
  <path class="cls-2" d="M45.2,110.85h.35c1.75,0,3.18-1.43,3.18-3.18s-1.43-3.18-3.18-3.18h-.35c-1.76,0-3.18,1.43-3.18,3.18s1.42,3.18,3.18,3.18Z"/>
</svg>