<?xml version="1.0" encoding="UTF-8"?>
<svg width="20px" height="20px" viewBox="0 0 20 20" version="1.1" xmlns="http://www.w3.org/2000/svg" xmlns:xlink="http://www.w3.org/1999/xlink">
    <title>icon-phone</title>
    <g id="組件" stroke="none" stroke-width="1" fill="none" fill-rule="evenodd">
        <g id="footer" transform="translate(-1077, -126)" fill="#E50113" fill-rule="nonzero">
            <g id="icon-phone" transform="translate(1077, 126)">
                <path d="M17.0700017,2.92786409 C13.1641844,-0.976781367 6.83250955,-0.975843868 2.92786409,2.93001253 C-0.976781367,6.83586892 -0.975843868,13.1675047 2.93001253,17.0721502 C6.83586892,20.9767956 13.1675047,20.9758581 17.0721502,17.0700017 C18.9473831,15.1941829 20.0005854,12.6502395 20,9.9978587 C19.9994526,7.3459076 18.9455081,4.80278454 17.0700017,2.92786409 Z M15.1446517,13.929887 C15.144222,13.9303166 15.1437923,13.9307854 15.1433235,13.9312151 L15.1433235,13.9278948 L14.6366442,14.4312147 C13.9813713,15.0947689 13.0270361,15.3677765 12.1199665,15.1512141 C11.2061,14.906605 10.3373506,14.5172303 9.54664811,13.9978947 C8.81203929,13.5284029 8.13125856,12.9795752 7.51664966,12.3612163 C6.95114227,11.7998495 6.44309579,11.1834437 5.99997112,10.5212177 C5.51528399,9.8086401 5.13165147,9.03239069 4.85997199,8.21453975 C4.54852692,7.25375923 4.80661266,6.19950222 5.52665117,5.49122151 L6.11997103,4.89790165 C6.28493185,4.73219865 6.55297852,4.73161272 6.71864245,4.89657353 C6.71907214,4.89700322 6.71954089,4.8974329 6.71997058,4.89790165 L8.59328946,6.77122054 C8.75899246,6.93618135 8.7595784,7.20422802 8.59461758,7.36989196 C8.5941879,7.37032164 8.59375821,7.37075133 8.59328946,7.37122008 L7.4932903,8.47121924 C7.17766554,8.7834065 7.13797807,9.27949987 7.39997006,9.63789804 C7.79782132,10.1839132 8.23809442,10.6977019 8.71664874,11.1745766 C9.25020302,11.7104355 9.83024164,12.1978961 10.4499677,12.6312551 C10.8080534,12.8810206 11.2935218,12.8389112 11.6032872,12.5312552 L12.6666067,11.451256 C12.8315675,11.285553 13.0996141,11.2849671 13.2652781,11.4499279 C13.2657078,11.4503576 13.2661375,11.4507873 13.2666062,11.451256 L15.1432845,13.3312546 C15.3090265,13.4961763 15.3096125,13.764184 15.1446517,13.929887 Z" id="形狀"></path>
            </g>
        </g>
    </g>
</svg>