<?xml version="1.0" encoding="UTF-8"?>
<svg width="20px" height="20px" viewBox="0 0 20 20" version="1.1" xmlns="http://www.w3.org/2000/svg" xmlns:xlink="http://www.w3.org/1999/xlink">
    <title>icon-mail</title>
    <g id="組件" stroke="none" stroke-width="1" fill="none" fill-rule="evenodd">
        <g id="footer" transform="translate(-1077, -160)" fill="#E50113" fill-rule="nonzero">
            <g id="icon-mail" transform="translate(1077, 160)">
                <path d="M10,0 C4.484375,0 0,4.484375 0,10 C0,15.515625 4.484375,20 10,20 C15.515625,20 20,15.515625 20,10 C20,4.484375 15.515625,0 10,0 Z M16.4453125,13.2890625 C16.4453125,13.984375 15.8828125,14.546875 15.1875,14.546875 L4.8125,14.546875 C4.1171875,14.546875 3.5546875,13.984375 3.5546875,13.2890625 L3.5546875,6.7109375 C3.5546875,6.015625 4.1171875,5.453125 4.8125,5.453125 L15.1835937,5.453125 C15.8789062,5.453125 16.4414063,6.015625 16.4414063,6.7109375 L16.4414063,13.2890625 L16.4453125,13.2890625 Z" id="形狀"></path>
                <path d="M10,11.1640625 C9.88671875,11.1640625 9.7734375,11.125 9.6796875,11.0507812 L4.59375,7.01171875 L4.59375,13.2890625 C4.59375,13.4140625 4.6953125,13.5117188 4.81640625,13.5117188 L15.1875,13.5117188 C15.3125,13.5117188 15.4101562,13.4101562 15.4101562,13.2890625 L15.4101562,7.01171875 L10.3242187,11.0507812 C10.2304687,11.125 10.1171875,11.1640625 10.0039063,11.1640625 L10,11.1640625 Z" id="路徑"></path>
                <polygon id="路徑" points="14.40625 6.48828125 5.59375 6.48828125 10 9.984375"></polygon>
            </g>
        </g>
    </g>
</svg>