<?xml version="1.0" encoding="UTF-8"?>
<svg width="28px" height="30px" viewBox="0 0 28 30" version="1.1" xmlns="http://www.w3.org/2000/svg" xmlns:xlink="http://www.w3.org/1999/xlink">
    <title>idea (1)</title>
    <g id="Page-1" stroke="none" stroke-width="1" fill="none" fill-rule="evenodd">
        <g id="A-index" transform="translate(-1194, -1495)" fill="#FDDC3C" fill-rule="nonzero">
            <g id="idea-(1)" transform="translate(1194, 1495)">
                <path d="M16.17,28 L11.26,28 C10.763,28 10.36,28.403 10.36,28.9 C10.36,29.397 10.763,29.8 11.26,29.8 L16.17,29.8 C16.667,29.8 17.07,29.397 17.07,28.9 C17.07,28.403 16.667,28 16.17,28 Z" id="Path"></path>
                <path d="M13.715,3.562 C14.212,3.562 14.615,3.159 14.615,2.662 L14.615,0.9 C14.615,0.403 14.212,0 13.715,0 C13.218,0 12.815,0.403 12.815,0.9 L12.815,2.662 C12.815,3.159 13.218,3.562 13.715,3.562 L13.715,3.562 Z" id="Path"></path>
                <path d="M26.53,11.809 L24.768,11.809 C24.271,11.809 23.868,12.212 23.868,12.709 C23.868,13.206 24.271,13.609 24.768,13.609 L26.53,13.609 C27.027,13.609 27.43,13.206 27.43,12.709 C27.43,12.212 27.028,11.809 26.53,11.809 Z" id="Path"></path>
                <path d="M2.661,11.809 L0.9,11.809 C0.403,11.809 0,12.212 0,12.709 C0,13.206 0.403,13.609 0.9,13.609 L2.662,13.609 C3.159,13.609 3.562,13.206 3.562,12.709 C3.562,12.212 3.158,11.809 2.661,11.809 Z" id="Path"></path>
                <path d="M5.974,6.241 C6.15,6.417 6.38,6.505 6.611,6.505 C6.842,6.505 7.072,6.417 7.248,6.241 C7.6,5.89 7.6,5.32 7.248,4.969 L6.001,3.722 C5.649,3.37 5.079,3.37 4.728,3.722 C4.376,4.073 4.376,4.643 4.728,4.994 L5.974,6.241 Z" id="Path"></path>
                <path d="M21.429,3.722 L20.183,4.968 C19.831,5.319 19.831,5.889 20.183,6.24 C20.359,6.416 20.589,6.504 20.82,6.504 C21.051,6.504 21.281,6.416 21.457,6.24 L22.703,4.994 C23.055,4.643 23.055,4.073 22.703,3.722 C22.351,3.371 21.78,3.371 21.429,3.722 L21.429,3.722 Z" id="Path"></path>
                <path d="M13.715,6.34198698 C9.19,6.335 5.509,10.015 5.509,14.548 C5.509,16.73 6.365,18.715 7.765,20.18 C8.694,21.153 9.271,22.408 9.271,23.753 L9.271,24.52 C9.271,25.072 9.719,25.52 10.271,25.52 L13.715,25.52 L17.159,25.52 C17.711,25.52 18.159,25.072 18.159,24.52 L18.159,23.753 C18.159,22.408 18.735,21.153 19.665,20.18 C21.064,18.715 21.921,16.731 21.921,14.548 C21.921,10.015 18.24,6.334 13.715,6.34198698 L13.715,6.34198698 Z M12.91,11.338 C11.736,11.63 10.792,12.579 10.504,13.756 C10.403,14.167 10.035,14.443 9.631,14.443 C9.56,14.443 9.487,14.434 9.416,14.417 C8.933,14.299 8.638,13.812 8.756,13.329 C9.208,11.482 10.633,10.05 12.475,9.591 C12.957,9.473 13.447,9.764 13.566,10.247 C13.686,10.73 13.392,11.218 12.91,11.338 L12.91,11.338 Z" id="Shape"></path>
            </g>
        </g>
    </g>
</svg>