<?xml version="1.0" encoding="UTF-8"?>
<svg width="45px" height="45px" viewBox="0 0 45 45" version="1.1" xmlns="http://www.w3.org/2000/svg" xmlns:xlink="http://www.w3.org/1999/xlink">
    <title>icon-fb</title>
    <g id="組件" stroke="none" stroke-width="1" fill="none" fill-rule="evenodd">
        <g id="footer" transform="translate(-147, -236)">
            <g id="icon-fb" transform="translate(148, 237)">
                <circle id="橢圓形" stroke="#393636" cx="21.5" cy="21.5" r="21.5"></circle>
                <g id="facebook---FontAwesome" transform="translate(17.346, 11.8571)" fill="#393636" fill-rule="nonzero">
                    <path d="M9.64285714,0.133928571 L9.64285714,3.08035714 L7.890625,3.08035714 C7.25074405,3.08035714 6.81919643,3.21428571 6.59598214,3.48214286 C6.37276786,3.75 6.26116071,4.15178571 6.26116071,4.6875 L6.26116071,6.796875 L9.53125,6.796875 L9.09598214,10.1004464 L6.26116071,10.1004464 L6.26116071,18.5714286 L2.84598214,18.5714286 L2.84598214,10.1004464 L0,10.1004464 L0,6.796875 L2.84598214,6.796875 L2.84598214,4.36383929 C2.84598214,2.97991071 3.2328869,1.90662202 4.00669643,1.14397321 C4.78050595,0.381324405 5.8110119,0 7.09821429,0 C8.19196429,0 9.04017857,0.0446428571 9.64285714,0.133928571 Z" id="Path"></path>
                </g>
            </g>
        </g>
    </g>
</svg>