<?xml version="1.0" encoding="UTF-8"?>
<svg width="20px" height="20px" viewBox="0 0 20 20" version="1.1" xmlns="http://www.w3.org/2000/svg" xmlns:xlink="http://www.w3.org/1999/xlink">
    <title>icon-plant</title>
    <g id="組件" stroke="none" stroke-width="1" fill="none" fill-rule="evenodd">
        <g id="footer" transform="translate(-1077, -197)" fill="#E50113">
            <g id="icon-plant" transform="translate(1077.0004, 197.0004)">
                <path d="M10,20 C4.4780315,20 0,15.5219685 0,10 C0,4.4780315 4.4780315,0 10,0 C15.5219685,0 20,4.4780315 20,10 C20,15.5219685 15.5219685,20 10,20 Z M10,3.49559055 C12.7355906,3.49559055 14.9531496,5.71314961 14.9531496,8.44874016 C14.9531496,11.184252 10,16.5043307 10,16.5043307 C10,16.5043307 5.04685039,11.184252 5.04685039,8.44874016 C5.04685039,5.71314961 7.26440945,3.49559055 10,3.49559055 Z M10,6.4807874 C11.0371654,6.4807874 11.8782677,7.32188976 11.8782677,8.35913386 C11.8782677,9.39629921 11.0371654,10.2374016 10,10.2374016 C8.96283465,10.2374016 8.12173228,9.39629921 8.12173228,8.35913386 C8.12173228,7.32188976 8.96283465,6.4807874 10,6.4807874 Z" id="形狀"></path>
            </g>
        </g>
    </g>
</svg>