<?xml version="1.0" encoding="UTF-8"?>
<svg width="21px" height="21px" viewBox="0 0 21 21" version="1.1" xmlns="http://www.w3.org/2000/svg" xmlns:xlink="http://www.w3.org/1999/xlink">
    <title>icon-clock</title>
    <g id="組件" stroke="none" stroke-width="1" fill="none" fill-rule="evenodd">
        <g id="footer" transform="translate(-1077, -256)" fill="#E50113" fill-rule="nonzero">
            <g id="icon-clock" transform="translate(1077.3337, 256.3337)">
                <path d="M10,0 C4.4771525,0 0,4.4771525 0,10 C0,15.5228475 4.4771525,20 10,20 C15.5228475,20 20,15.5228475 20,10 C19.9934877,4.47985222 15.5201478,0.00651227333 10,0 L10,0 Z M13.37,13.37 C13.0150001,13.7248927 12.4395453,13.7248927 12.0845455,13.37 L9.35727273,10.6427273 C9.1867733,10.4722793 9.09096058,10.2410862 9.09090909,10 L9.09090909,4.54545455 C9.09090909,4.0433775 9.49792295,3.63636364 10,3.63636364 C10.502077,3.63636364 10.9090909,4.0433775 10.9090909,4.54545455 L10.9090909,9.62363636 L13.37,12.0845455 C13.7248927,12.4395453 13.7248927,13.0150001 13.37,13.37 L13.37,13.37 Z" id="形狀"></path>
            </g>
        </g>
    </g>
</svg>