<?xml version="1.0" encoding="UTF-8"?>
<svg width="22px" height="22px" viewBox="0 0 22 22" version="1.1" xmlns="http://www.w3.org/2000/svg" xmlns:xlink="http://www.w3.org/1999/xlink">
    <title>faq</title>
    <g id="Page-1" stroke="none" stroke-width="1" fill="none" fill-rule="evenodd">
        <g id="A-index" transform="translate(-961, -1499)" fill="#E50113">
            <g id="faq" transform="translate(961, 1499)">
                <path d="M21.5,10.3167 C21.5,4.58838 16.65477,0 10.75,0 C4.8452,0 0,4.58838 0,10.3167 C0,16.045 4.8452,20.6334 10.75,20.6334 C11.4459,20.6343 12.1397,20.5699 12.82302,20.4416 C13.06021,20.397 13.21091,20.3689 13.32304,20.3536 C13.40666,20.3407 13.49069,20.3719 13.52225,20.3891 C13.63678,20.4435 13.78932,20.5244 14.02286,20.6486 C15.45458,21.41 17.12496,21.68 18.73604,21.3803 C18.99619,21.3319 19.2116,21.15 19.30287,20.9017 C19.39414,20.6533 19.34776,20.3752 19.18083,20.1699 C18.71303,19.5945 18.39137,18.9013 18.24912,18.1552 C18.21063,17.95 18.29773,17.6713 18.56549,17.3994 C20.38028,15.5565 21.5,13.0644 21.5,10.3167 L21.5,10.3167 Z M9.75,8.00824 C9.75,7.70663 10.0728,7.25 10.75,7.25 C11.4272,7.25 11.75,7.70663 11.75,8.00824 C11.75,8.13027 11.7108,8.25211 11.6262,8.36775 C11.5122,8.52341 11.3656,8.68972 11.1803,8.8922 L11.0914,8.989 C10.9363,9.1576 10.7587,9.3507 10.597,9.546 C10.2261,9.9943 9.75,10.6672 9.75,11.5247 L9.75,11.9643 C9.75,12.5166 10.1977,12.9643 10.75,12.9643 C11.3023,12.9643 11.75,12.5166 11.75,11.9643 L11.75,11.5247 C11.75,11.4112 11.8166,11.2093 12.1378,10.8212 C12.2631,10.6698 12.3984,10.5226 12.5527,10.3546 L12.6556,10.2425 C12.842,10.0389 13.0551,9.8017 13.2401,9.549 C13.5565,9.1167 13.75,8.58626 13.75,8.00824 C13.75,6.36775 12.2819,5.25 10.75,5.25 C9.2181,5.25 7.75,6.36775 7.75,8.00824 C7.75,8.56053 8.19771,9.0082 8.75,9.0082 C9.3023,9.0082 9.75,8.56053 9.75,8.00824 Z M10.75,14.25 C10.1977,14.25 9.75,14.6977 9.75,15.25 C9.75,15.8023 10.1977,16.25 10.75,16.25 L10.762,16.25 C11.3143,16.25 11.762,15.8023 11.762,15.25 C11.762,14.6977 11.3143,14.25 10.762,14.25 L10.75,14.25 Z" id="Shape"></path>
            </g>
        </g>
    </g>
</svg>