<?xml version="1.0" encoding="UTF-8"?>
<svg width="192px" height="192px" viewBox="0 0 192 192" version="1.1" xmlns="http://www.w3.org/2000/svg" xmlns:xlink="http://www.w3.org/1999/xlink">
    <title>qr</title>
    <g id="Page-1" stroke="none" stroke-width="1" fill="none" fill-rule="evenodd">
        <g id="03-任務遊戲" transform="translate(-524, -4384)" fill="#393636" fill-rule="nonzero">
            <g id="qr" transform="translate(524, 4384)">
                <path d="M180.292683,156.097561 L180.292683,168.065041 L156.357724,168.065041 L156.357724,192 L144.390244,192 L144.390244,156.097561 L180.292683,156.097561 Z M107.863415,131.902439 L107.863415,167.960976 L131.902439,167.960976 L131.902439,179.980488 L107.863415,179.980488 L107.863415,192 L71.804878,192 L71.804878,179.980488 L95.8439024,179.980488 L95.8439024,143.921951 L71.804878,143.921951 L71.804878,131.902439 L107.863415,131.902439 Z M60.097561,131.902439 L60.097561,192 L0,192 L0,131.902439 L60.097561,131.902439 Z M192,180.292683 L192,192 L167.804878,192 L167.804878,180.292683 L192,180.292683 Z M48.0780488,143.921951 L12.0195122,143.921951 L12.0195122,179.980488 L48.0780488,179.980488 L48.0780488,143.921951 Z M83.5121951,156.097561 L83.5121951,167.804878 L71.804878,167.804878 L71.804878,156.097561 L83.5121951,156.097561 Z M35.902439,156.097561 L35.902439,167.804878 L24.195122,167.804878 L24.195122,156.097561 L35.902439,156.097561 Z M131.902439,131.902439 L131.902439,156.097561 L120.195122,156.097561 L120.195122,131.902439 L131.902439,131.902439 Z M156.097561,107.707317 L156.097561,143.609756 L144,143.609756 L144,119.674797 L131.902439,119.674797 L131.902439,107.707317 L156.097561,107.707317 Z M192,131.902439 L192,143.609756 L180.292683,143.609756 L180.292683,131.902439 L192,131.902439 Z M59.9414634,71.804878 L59.9414634,96 L83.9804878,96 L83.9804878,108.097561 L96,108.097561 L96,120.195122 L71.9609756,120.195122 L71.9609756,108.097561 L47.9219512,108.097561 L47.9219512,120.195122 L35.902439,120.195122 L35.902439,96 L47.9219512,96 L47.9219512,71.804878 L59.9414634,71.804878 Z M12.097561,71.804878 L12.097561,96 L24.195122,96 L24.195122,108.097561 L12.097561,108.097561 L12.097561,120.195122 L0,120.195122 L0,71.804878 L12.097561,71.804878 Z M120.195122,96 L120.195122,120.195122 L108.487805,120.195122 L108.487805,96 L120.195122,96 Z M192,108.487805 L192,120.195122 L167.804878,120.195122 L167.804878,108.487805 L192,108.487805 Z M155.941463,71.804878 L155.941463,83.902439 L167.960976,83.902439 L167.960976,71.804878 L192,71.804878 L192,83.902439 L179.980488,83.902439 L179.980488,96 L131.902439,96 L131.902439,83.902439 L143.921951,83.902439 L143.921951,71.804878 L155.941463,71.804878 Z M120.195122,60.097561 L120.195122,84.2926829 L71.804878,84.2926829 L71.804878,72.195122 L108.097561,72.195122 L108.097561,60.097561 L120.195122,60.097561 Z M35.902439,71.804878 L35.902439,83.5121951 L24.195122,83.5121951 L24.195122,71.804878 L35.902439,71.804878 Z M60.097561,0 L60.097561,60.097561 L0,60.097561 L0,0 L60.097561,0 Z M83.5121951,48.3902439 L83.5121951,60.097561 L71.804878,60.097561 L71.804878,48.3902439 L83.5121951,48.3902439 Z M192,0 L192,60.097561 L131.902439,60.097561 L131.902439,0 L192,0 Z M48.0780488,12.0195122 L12.0195122,12.0195122 L12.0195122,48.0780488 L48.0780488,48.0780488 L48.0780488,12.0195122 Z M179.980488,12.0195122 L143.921951,12.0195122 L143.921951,48.0780488 L179.980488,48.0780488 L179.980488,12.0195122 Z M83.902439,11.7073171 L83.902439,23.6747967 L120.195122,23.6747967 L120.195122,35.6422764 L108.097561,35.6422764 L108.097561,47.6097561 L96,47.6097561 L96,35.6422764 L71.804878,35.6422764 L71.804878,11.7073171 L83.902439,11.7073171 Z M35.902439,24.195122 L35.902439,35.902439 L24.195122,35.902439 L24.195122,24.195122 L35.902439,24.195122 Z M167.804878,24.195122 L167.804878,35.902439 L156.097561,35.902439 L156.097561,24.195122 L167.804878,24.195122 Z M120.195122,0 L120.195122,11.7073171 L96,11.7073171 L96,0 L120.195122,0 Z" id="合併形狀"></path>
            </g>
        </g>
    </g>
</svg>